<?xml version="1.0" encoding="UTF-8" standalone="no"?>
<!-- Created with Inkscape (http://www.inkscape.org/) -->

<svg
   width="30mm"
   height="70mm"
   viewBox="0 0 30 70"
   version="1.1"
   id="svg1"
   sodipodi:docname="logo3.svg"
   inkscape:version="1.4 (86a8ad7, 2024-10-11)"
   xmlns:inkscape="http://www.inkscape.org/namespaces/inkscape"
   xmlns:sodipodi="http://sodipodi.sourceforge.net/DTD/sodipodi-0.dtd"
   xmlns="http://www.w3.org/2000/svg"
   xmlns:svg="http://www.w3.org/2000/svg">
  <sodipodi:namedview
     id="namedview1"
     pagecolor="#ffffff"
     bordercolor="#000000"
     borderopacity="0.25"
     inkscape:showpageshadow="2"
     inkscape:pageopacity="0.0"
     inkscape:pagecheckerboard="0"
     inkscape:deskcolor="#d1d1d1"
     inkscape:document-units="mm"
     inkscape:zoom="0.68862935"
     inkscape:cx="397.16576"
     inkscape:cy="336.17504"
     inkscape:window-width="1920"
     inkscape:window-height="991"
     inkscape:window-x="-9"
     inkscape:window-y="-9"
     inkscape:window-maximized="1"
     inkscape:current-layer="layer1" />
  <defs
     id="defs1" />
  <g
     inkscape:label="Layer 1"
     inkscape:groupmode="layer"
     id="layer1">
    <path
       id="rect1"
       style="fill:#2d3f40;fill-opacity:1;stroke-width:0.23132"
       d="m 13.063513,14.984242 c -5.95998,0 -10.758,5.113711 -10.758,11.465607 v 28.170076 c 0,6.35189 4.79802,11.46521 10.758,11.46521 5.959979,0 10.757999,-5.11332 10.757999,-11.46521 V 26.449849 c 0,-6.351896 -4.79802,-11.465607 -10.757999,-11.465607 z m 0,7.342223 c 1.915707,0 3.45767,1.704701 3.45767,3.822 v 28.47935 c 0,2.1173 -1.541963,3.82161 -3.45767,3.82161 -1.915708,0 -3.458187,-1.70431 -3.458187,-3.82161 v -28.47935 c 0,-2.117299 1.542479,-3.822 3.458187,-3.822 z" />
    <ellipse
       style="fill:#2d3f40;fill-opacity:1;stroke-width:0.202529"
       id="path2"
       cx="19.210861"
       cy="6.723805"
       rx="4.6106076"
       ry="4.8027163" />
  </g>
</svg>
