<?xml version="1.0" encoding="UTF-8" standalone="no"?>
<!-- Created with Inkscape (http://www.inkscape.org/) -->

<svg
   width="30"
   height="40"
   viewBox="0 0 7.9374998 10.583333"
   version="1.1"
   id="svg1"
   inkscape:version="1.4 (86a8ad7, 2024-10-11)"
   sodipodi:docname="marker_spot.svg"
   xmlns:inkscape="http://www.inkscape.org/namespaces/inkscape"
   xmlns:sodipodi="http://sodipodi.sourceforge.net/DTD/sodipodi-0.dtd"
   xmlns="http://www.w3.org/2000/svg"
   xmlns:svg="http://www.w3.org/2000/svg">
  <sodipodi:namedview
     id="namedview1"
     pagecolor="#ffffff"
     bordercolor="#000000"
     borderopacity="0.25"
     inkscape:showpageshadow="2"
     inkscape:pageopacity="0.0"
     inkscape:pagecheckerboard="0"
     inkscape:deskcolor="#d1d1d1"
     inkscape:document-units="mm"
     inkscape:zoom="15.581903"
     inkscape:cx="3.6901782"
     inkscape:cy="16.718112"
     inkscape:window-width="1920"
     inkscape:window-height="991"
     inkscape:window-x="-9"
     inkscape:window-y="-9"
     inkscape:window-maximized="1"
     inkscape:current-layer="layer1" />
  <defs
     id="defs1" />
  <g
     inkscape:label="Layer 1"
     inkscape:groupmode="layer"
     id="layer1">
    <path
       id="path1"
       style="fill:#ff0000;fill-opacity:1;stroke-width:0.420066"
       d="M 3.9324162,0.03382276 A 3.0463239,3.0463239 0 0 0 0.88606018,3.0801787 3.0463239,3.0463239 0 0 0 1.349016,4.6901238 L 3.9324162,10.576615 6.518788,4.6847752 A 3.0463239,3.0463239 0 0 0 6.9787723,3.0801787 3.0463239,3.0463239 0 0 0 3.9324162,0.03382276 Z m 0.019612,0.95681488 A 2.0308827,2.0308827 0 0 1 5.9827338,3.0219378 2.0308827,2.0308827 0 0 1 3.9520281,5.0526437 2.0308827,2.0308827 0 0 1 1.9213222,3.0219378 2.0308827,2.0308827 0 0 1 3.9520282,0.99063764 Z" />
  </g>
</svg>
