<?xml version="1.0" encoding="UTF-8" standalone="no"?>
<!-- Created with Inkscape (http://www.inkscape.org/) -->

<svg
   width="30"
   height="40"
   viewBox="0 0 7.9374998 10.583333"
   version="1.1"
   id="svg1"
   inkscape:version="1.4 (86a8ad7, 2024-10-11)"
   sodipodi:docname="marker.svg"
   xmlns:inkscape="http://www.inkscape.org/namespaces/inkscape"
   xmlns:sodipodi="http://sodipodi.sourceforge.net/DTD/sodipodi-0.dtd"
   xmlns="http://www.w3.org/2000/svg"
   xmlns:svg="http://www.w3.org/2000/svg">
  <sodipodi:namedview
     id="namedview1"
     pagecolor="#ffffff"
     bordercolor="#000000"
     borderopacity="0.25"
     inkscape:showpageshadow="2"
     inkscape:pageopacity="0.0"
     inkscape:pagecheckerboard="0"
     inkscape:deskcolor="#d1d1d1"
     inkscape:document-units="mm"
     inkscape:zoom="15.581903"
     inkscape:cx="3.6901782"
     inkscape:cy="16.718112"
     inkscape:window-width="1920"
     inkscape:window-height="991"
     inkscape:window-x="-9"
     inkscape:window-y="-9"
     inkscape:window-maximized="1"
     inkscape:current-layer="layer1" />
  <defs
     id="defs1" />
  <g
     inkscape:label="Layer 1"
     inkscape:groupmode="layer"
     id="layer1">
    <path
       id="path1"
       style="fill:#7fff2a;stroke-width:0.365265;fill-opacity:1"
       d="M 3.9392944 1.4092163 A 2.648906 2.648906 0 0 0 1.2903605 4.0581502 A 2.648906 2.648906 0 0 0 1.6929199 5.4580648 L 3.9392944 10.576615 L 6.1882528 5.4534139 A 2.648906 2.648906 0 0 0 6.5882284 4.0581502 A 2.648906 2.648906 0 0 0 3.9392944 1.4092163 z M 3.9563477 2.2412069 A 1.7659374 1.7659374 0 0 1 5.7221313 4.0075073 A 1.7659374 1.7659374 0 0 1 3.9563477 5.773291 A 1.7659374 1.7659374 0 0 1 2.190564 4.0075073 A 1.7659374 1.7659374 0 0 1 3.9563477 2.2412069 z " />
  </g>
</svg>
